  <svg
        width="84"
        height="84"
        viewBox="0 0 24 24"
        fill="none"
        xmlns="http://www.w3.org/2000/svg"
      >
        <path
          d="M23.0164 24H0.983607C0.440164 24 0 23.5598 0 23.0164V0.983607C0 0.440164 0.440164 0 0.983607 0H23.0164C23.5598 0 24 0.440164 24 0.983607V23.0164C24 23.5598 23.5598 24 23.0164 24Z"
          fill="#1E4ED8"
        />
        <path
          d="M6.17969 6.61486V17.3858C6.17969 17.5836 6.34002 17.7434 6.53723 17.7434H9.43198C9.62969 17.7434 9.78952 17.5831 9.78952 17.3858V10.2252C9.78952 10.0275 9.94985 9.86765 10.1471 9.86765H17.472C17.6697 9.86765 17.8295 9.70732 17.8295 9.51011V6.61535C17.8295 6.41765 17.6692 6.25781 17.472 6.25781H6.53772C6.34002 6.25732 6.17969 6.41765 6.17969 6.61486Z"
          fill="white"
        />
        <path
          d="M13.9762 17.744H17.3997C17.6367 17.744 17.8285 17.5517 17.8285 17.3147V13.8913C17.8285 13.6542 17.6362 13.4619 17.3997 13.4619H13.9762C13.7392 13.4619 13.5469 13.6542 13.5469 13.8913V17.3147C13.5469 17.5517 13.7392 17.744 13.9762 17.744Z"
          fill="white"
        />
      </svg>